<?xml version="1.0" encoding="UTF-8"?>
<!DOCTYPE svg
  PUBLIC '-//W3C//DTD SVG 1.1//EN'
  'http://www.w3.org/Graphics/SVG/1.1/DTD/svg11.dtd'>
<svg height="23.000mm" version="1.1" width="33.000mm" xmlns="http://www.w3.org/2000/svg">
    <!--Autogenerated with pyBarcode 0.8beta1-->
    <g id="barcode_group">
        <rect height="100%" style="fill:white" width="100%"/>
        <rect height="15.000mm" style="fill:black;" width="0.200mm" x="2.540mm" y="1.000mm"/>
        <rect height="15.000mm" style="fill:white;" width="0.600mm" x="2.740mm" y="1.000mm"/>
        <rect height="15.000mm" style="fill:black;" width="0.200mm" x="3.340mm" y="1.000mm"/>
        <rect height="15.000mm" style="fill:white;" width="0.200mm" x="3.540mm" y="1.000mm"/>
        <rect height="15.000mm" style="fill:black;" width="0.600mm" x="3.740mm" y="1.000mm"/>
        <rect height="15.000mm" style="fill:white;" width="0.200mm" x="4.340mm" y="1.000mm"/>
        <rect height="15.000mm" style="fill:black;" width="0.600mm" x="4.540mm" y="1.000mm"/>
        <rect height="15.000mm" style="fill:white;" width="0.200mm" x="5.140mm" y="1.000mm"/>
        <rect height="15.000mm" style="fill:black;" width="0.200mm" x="5.340mm" y="1.000mm"/>
        <rect height="15.000mm" style="fill:white;" width="0.200mm" x="5.540mm" y="1.000mm"/>
        <rect height="15.000mm" style="fill:black;" width="0.200mm" x="5.740mm" y="1.000mm"/>
        <rect height="15.000mm" style="fill:white;" width="0.200mm" x="5.940mm" y="1.000mm"/>
        <rect height="15.000mm" style="fill:black;" width="0.200mm" x="6.140mm" y="1.000mm"/>
        <rect height="15.000mm" style="fill:white;" width="0.600mm" x="6.340mm" y="1.000mm"/>
        <rect height="15.000mm" style="fill:black;" width="0.600mm" x="6.940mm" y="1.000mm"/>
        <rect height="15.000mm" style="fill:white;" width="0.200mm" x="7.540mm" y="1.000mm"/>
        <rect height="15.000mm" style="fill:black;" width="0.600mm" x="7.740mm" y="1.000mm"/>
        <rect height="15.000mm" style="fill:white;" width="0.200mm" x="8.340mm" y="1.000mm"/>
        <rect height="15.000mm" style="fill:black;" width="0.200mm" x="8.540mm" y="1.000mm"/>
        <rect height="15.000mm" style="fill:white;" width="0.200mm" x="8.740mm" y="1.000mm"/>
        <rect height="15.000mm" style="fill:black;" width="0.200mm" x="8.940mm" y="1.000mm"/>
        <rect height="15.000mm" style="fill:white;" width="0.200mm" x="9.140mm" y="1.000mm"/>
        <rect height="15.000mm" style="fill:black;" width="0.200mm" x="9.340mm" y="1.000mm"/>
        <rect height="15.000mm" style="fill:white;" width="0.600mm" x="9.540mm" y="1.000mm"/>
        <rect height="15.000mm" style="fill:black;" width="0.600mm" x="10.140mm" y="1.000mm"/>
        <rect height="15.000mm" style="fill:white;" width="0.200mm" x="10.740mm" y="1.000mm"/>
        <rect height="15.000mm" style="fill:black;" width="0.600mm" x="10.940mm" y="1.000mm"/>
        <rect height="15.000mm" style="fill:white;" width="0.200mm" x="11.540mm" y="1.000mm"/>
        <rect height="15.000mm" style="fill:black;" width="0.200mm" x="11.740mm" y="1.000mm"/>
        <rect height="15.000mm" style="fill:white;" width="0.200mm" x="11.940mm" y="1.000mm"/>
        <rect height="15.000mm" style="fill:black;" width="0.200mm" x="12.140mm" y="1.000mm"/>
        <rect height="15.000mm" style="fill:white;" width="0.200mm" x="12.340mm" y="1.000mm"/>
        <rect height="15.000mm" style="fill:black;" width="0.200mm" x="12.540mm" y="1.000mm"/>
        <rect height="15.000mm" style="fill:white;" width="0.600mm" x="12.740mm" y="1.000mm"/>
        <rect height="15.000mm" style="fill:black;" width="0.600mm" x="13.340mm" y="1.000mm"/>
        <rect height="15.000mm" style="fill:white;" width="0.200mm" x="13.940mm" y="1.000mm"/>
        <rect height="15.000mm" style="fill:black;" width="0.600mm" x="14.140mm" y="1.000mm"/>
        <rect height="15.000mm" style="fill:white;" width="0.200mm" x="14.740mm" y="1.000mm"/>
        <rect height="15.000mm" style="fill:black;" width="0.200mm" x="14.940mm" y="1.000mm"/>
        <rect height="15.000mm" style="fill:white;" width="0.200mm" x="15.140mm" y="1.000mm"/>
        <rect height="15.000mm" style="fill:black;" width="0.200mm" x="15.340mm" y="1.000mm"/>
        <rect height="15.000mm" style="fill:white;" width="0.200mm" x="15.540mm" y="1.000mm"/>
        <rect height="15.000mm" style="fill:black;" width="0.600mm" x="15.740mm" y="1.000mm"/>
        <rect height="15.000mm" style="fill:white;" width="0.600mm" x="16.340mm" y="1.000mm"/>
        <rect height="15.000mm" style="fill:black;" width="0.200mm" x="16.940mm" y="1.000mm"/>
        <rect height="15.000mm" style="fill:white;" width="0.200mm" x="17.140mm" y="1.000mm"/>
        <rect height="15.000mm" style="fill:black;" width="0.600mm" x="17.340mm" y="1.000mm"/>
        <rect height="15.000mm" style="fill:white;" width="0.200mm" x="17.940mm" y="1.000mm"/>
        <rect height="15.000mm" style="fill:black;" width="0.200mm" x="18.140mm" y="1.000mm"/>
        <rect height="15.000mm" style="fill:white;" width="0.200mm" x="18.340mm" y="1.000mm"/>
        <rect height="15.000mm" style="fill:black;" width="0.200mm" x="18.540mm" y="1.000mm"/>
        <rect height="15.000mm" style="fill:white;" width="0.200mm" x="18.740mm" y="1.000mm"/>
        <rect height="15.000mm" style="fill:black;" width="0.600mm" x="18.940mm" y="1.000mm"/>
        <rect height="15.000mm" style="fill:white;" width="0.600mm" x="19.540mm" y="1.000mm"/>
        <rect height="15.000mm" style="fill:black;" width="0.200mm" x="20.140mm" y="1.000mm"/>
        <rect height="15.000mm" style="fill:white;" width="0.200mm" x="20.340mm" y="1.000mm"/>
        <rect height="15.000mm" style="fill:black;" width="0.600mm" x="20.540mm" y="1.000mm"/>
        <rect height="15.000mm" style="fill:white;" width="0.200mm" x="21.140mm" y="1.000mm"/>
        <rect height="15.000mm" style="fill:black;" width="0.200mm" x="21.340mm" y="1.000mm"/>
        <rect height="15.000mm" style="fill:white;" width="0.200mm" x="21.540mm" y="1.000mm"/>
        <rect height="15.000mm" style="fill:black;" width="0.200mm" x="21.740mm" y="1.000mm"/>
        <rect height="15.000mm" style="fill:white;" width="0.200mm" x="21.940mm" y="1.000mm"/>
        <rect height="15.000mm" style="fill:black;" width="0.600mm" x="22.140mm" y="1.000mm"/>
        <rect height="15.000mm" style="fill:white;" width="0.600mm" x="22.740mm" y="1.000mm"/>
        <rect height="15.000mm" style="fill:black;" width="0.600mm" x="23.340mm" y="1.000mm"/>
        <rect height="15.000mm" style="fill:white;" width="0.200mm" x="23.940mm" y="1.000mm"/>
        <rect height="15.000mm" style="fill:black;" width="0.200mm" x="24.140mm" y="1.000mm"/>
        <rect height="15.000mm" style="fill:white;" width="0.200mm" x="24.340mm" y="1.000mm"/>
        <rect height="15.000mm" style="fill:black;" width="0.200mm" x="24.540mm" y="1.000mm"/>
        <rect height="15.000mm" style="fill:white;" width="0.200mm" x="24.740mm" y="1.000mm"/>
        <rect height="15.000mm" style="fill:black;" width="0.200mm" x="24.940mm" y="1.000mm"/>
        <rect height="15.000mm" style="fill:white;" width="0.200mm" x="25.140mm" y="1.000mm"/>
        <rect height="15.000mm" style="fill:black;" width="0.200mm" x="25.340mm" y="1.000mm"/>
        <rect height="15.000mm" style="fill:white;" width="0.600mm" x="25.540mm" y="1.000mm"/>
        <rect height="15.000mm" style="fill:black;" width="0.600mm" x="26.140mm" y="1.000mm"/>
        <rect height="15.000mm" style="fill:white;" width="0.200mm" x="26.740mm" y="1.000mm"/>
        <rect height="15.000mm" style="fill:black;" width="0.200mm" x="26.940mm" y="1.000mm"/>
        <rect height="15.000mm" style="fill:white;" width="0.200mm" x="27.140mm" y="1.000mm"/>
        <rect height="15.000mm" style="fill:black;" width="0.600mm" x="27.340mm" y="1.000mm"/>
        <rect height="15.000mm" style="fill:white;" width="0.200mm" x="27.940mm" y="1.000mm"/>
        <rect height="15.000mm" style="fill:black;" width="0.200mm" x="28.140mm" y="1.000mm"/>
        <rect height="15.000mm" style="fill:white;" width="0.600mm" x="28.340mm" y="1.000mm"/>
        <rect height="15.000mm" style="fill:black;" width="0.200mm" x="28.940mm" y="1.000mm"/>
        <rect height="15.000mm" style="fill:white;" width="0.200mm" x="29.140mm" y="1.000mm"/>
        <rect height="15.000mm" style="fill:black;" width="0.600mm" x="29.340mm" y="1.000mm"/>
        <rect height="15.000mm" style="fill:white;" width="0.200mm" x="29.940mm" y="1.000mm"/>
        <rect height="15.000mm" style="fill:black;" width="0.600mm" x="30.140mm" y="1.000mm"/>
        <rect height="15.000mm" style="fill:white;" width="0.200mm" x="30.740mm" y="1.000mm"/>
        <rect height="15.000mm" style="fill:black;" width="0.200mm" x="30.940mm" y="1.000mm"/>
        <text style="fill:black;font-size:10pt;text-anchor:middle;" x="16.840mm" y="21.000mm">0009964</text>
    </g>
</svg>
